<?xml version="1.0" standalone="no"?>
<!DOCTYPE svg PUBLIC "-//W3C//DTD SVG 20010904//EN"
 "http://www.w3.org/TR/2001/REC-SVG-20010904/DTD/svg10.dtd">
<svg version="1.0" xmlns="http://www.w3.org/2000/svg"
 width="950.000000pt" height="1032.000000pt" viewBox="0 0 950.000000 1032.000000"
 preserveAspectRatio="xMidYMid meet">

<g transform="translate(0.000000,1032.000000) scale(0.100000,-0.100000)"
fill="#000000" stroke="none">
<path d="M0 5160 l0 -5160 4750 0 4750 0 0 5160 0 5160 -4750 0 -4750 0 0
-5160z m5252 3956 c15 -11 18 -42 24 -247 l7 -234 -91 -227 -90 -226 -174
-208 c-95 -115 -184 -223 -198 -240 -14 -18 -94 -115 -178 -217 l-153 -185
-77 -27 c-103 -36 -112 -47 -37 -44 91 5 187 0 181 -8 -2 -5 -81 -37 -175 -73
-94 -36 -171 -70 -171 -75 0 -6 22 -37 49 -70 30 -37 101 -164 186 -328 l137
-267 167 -118 c92 -64 242 -169 333 -232 92 -63 162 -117 156 -119 -9 -3 -264
12 -738 44 -118 8 -236 16 -262 17 -27 1 -48 4 -48 8 0 3 32 37 70 75 39 38
70 72 70 76 0 3 -26 24 -57 46 -32 22 -178 123 -324 225 l-265 185 -310 -88
c-170 -49 -316 -89 -324 -89 -8 0 12 15 45 33 208 114 485 277 472 277 -5 0
-22 -7 -38 -16 -36 -18 -109 -17 -159 3 -44 17 -100 71 -100 95 0 53 -47 -8
-260 -339 l-53 -83 -111 0 c-109 1 -112 1 -144 30 l-33 30 120 133 c83 92 145
150 205 192 47 33 85 63 86 68 0 4 -11 7 -25 7 -14 0 -25 4 -25 9 0 5 23 36
51 69 34 41 76 75 132 108 45 26 125 73 177 104 52 31 134 79 181 107 l86 51
218 -106 217 -106 39 44 c32 37 38 51 34 75 -3 17 -7 48 -10 70 -3 22 -11 76
-19 119 l-14 79 295 592 294 592 230 218 c227 214 229 218 223 251 -14 78 -5
74 178 -60z m-2707 -2901 c-12 -65 -14 -85 -8 -85 4 0 23 18 43 40 l35 41 64
-12 63 -12 -6 -161 c-4 -88 -7 -182 -8 -208 -1 -27 -5 -48 -9 -48 -4 0 -58 20
-119 44 l-112 44 -2 198 c0 110 3 208 7 219 7 18 9 17 32 -10 13 -17 22 -39
20 -50z m1263 -59 c141 -63 258 -118 259 -123 1 -4 -64 -46 -145 -92 -81 -46
-203 -117 -272 -157 -81 -47 -163 -86 -234 -110 -60 -20 -123 -45 -140 -55
-17 -10 -37 -19 -45 -19 -8 0 -36 24 -63 53 -49 52 -54 49 -13 -8 40 -55 40
-55 -13 -55 -44 0 -57 6 -113 49 -50 38 -87 56 -169 82 -58 18 -109 36 -113
40 -5 3 13 10 40 14 26 3 96 18 154 31 l107 25 96 -26 c53 -15 101 -25 106
-23 5 2 -13 42 -41 90 -27 48 -49 91 -48 95 1 10 369 303 381 303 5 0 124 -51
266 -114z m237 -237 c-18 -46 -54 -136 -79 -199 -24 -63 -70 -179 -100 -258
-31 -78 -56 -149 -56 -157 0 -8 85 -186 190 -394 l189 -379 -15 -59 c-9 -32
-33 -123 -54 -203 -49 -185 -119 -451 -160 -605 -17 -66 -35 -136 -41 -156 -9
-37 -18 -48 -264 -349 -174 -212 -235 -287 -479 -589 -99 -121 -181 -219 -182
-218 -4 4 -50 810 -65 1132 l-12 260 78 185 c43 102 98 232 123 290 24 58 61
146 82 195 21 50 102 241 180 425 78 184 159 376 180 425 21 50 47 110 58 135
11 25 111 164 222 310 210 275 231 302 236 297 2 -2 -12 -41 -31 -88z m620
-3126 c49 -54 99 -109 111 -123 25 -28 20 12 85 -633 22 -224 39 -417 37 -429
-3 -19 -19 -26 -128 -54 -69 -17 -215 -55 -325 -84 l-200 -52 -159 164 c-87
89 -228 233 -313 319 l-155 157 88 277 c49 152 93 283 99 290 5 7 109 45 230
85 121 41 288 97 370 126 83 29 155 53 161 53 6 1 51 -43 99 -96z"/>
<path d="M5107 9010 c-4 -14 -7 -41 -7 -60 0 -31 -17 -52 -188 -225 l-189
-190 -267 -539 -267 -540 13 -73 c6 -40 15 -73 19 -73 4 0 14 20 22 44 11 32
116 166 389 493 205 246 379 456 386 464 13 17 30 72 102 334 l42 151 -24 119
c-18 89 -26 114 -31 95z"/>
<path d="M3630 6964 c-6 -14 -10 -37 -10 -51 0 -17 -13 -38 -37 -60 l-37 -35
52 26 c49 25 72 54 110 139 2 4 -13 7 -32 7 -30 0 -38 -5 -46 -26z"/>
</g>
</svg>
